<svg width="40" height="40" viewBox="0 0 40 40" fill="none" xmlns="http://www.w3.org/2000/svg">
<circle cx="20" cy="20" r="20" fill="#0A3871"/>
<path d="M11.6982 26V14.3636H15.63C16.5429 14.3636 17.2891 14.5284 17.8686 14.858C18.4519 15.1837 18.8838 15.625 19.1641 16.1818C19.4444 16.7386 19.5845 17.3598 19.5845 18.0455C19.5845 18.7311 19.4444 19.3542 19.1641 19.9148C18.8875 20.4754 18.4595 20.9223 17.88 21.2557C17.3004 21.5852 16.558 21.75 15.6527 21.75H12.8345V20.5H15.6072C16.2322 20.5 16.7341 20.392 17.1129 20.1761C17.4917 19.9602 17.7663 19.6686 17.9368 19.3011C18.111 18.9299 18.1982 18.5114 18.1982 18.0455C18.1982 17.5795 18.111 17.1629 17.9368 16.7955C17.7663 16.428 17.4898 16.1402 17.1072 15.9318C16.7247 15.7197 16.2171 15.6136 15.5845 15.6136H13.1072V26H11.6982ZM21.218 15.6136V14.3636H29.9453V15.6136H26.2862V26H24.8771V15.6136H21.218Z" fill="white"/>
</svg>
