<svg width="40" height="40" viewBox="0 0 40 40" fill="none" xmlns="http://www.w3.org/2000/svg">
<path d="M11.5263 26V14.3636H18.549V15.6136H12.9354V19.5455H18.1854V20.7955H12.9354V24.75H18.6399V26H11.5263ZM27.4524 17.2727C27.3842 16.697 27.1077 16.25 26.6229 15.9318C26.138 15.6136 25.5433 15.4545 24.8388 15.4545C24.3236 15.4545 23.8729 15.5379 23.4865 15.7045C23.1039 15.8712 22.8047 16.1004 22.5888 16.392C22.3767 16.6837 22.2706 17.0152 22.2706 17.3864C22.2706 17.697 22.3445 17.964 22.4922 18.1875C22.6437 18.4072 22.8369 18.5909 23.0717 18.7386C23.3066 18.8826 23.5528 19.0019 23.8104 19.0966C24.0679 19.1875 24.3047 19.2614 24.5206 19.3182L25.7024 19.6364C26.0054 19.7159 26.3426 19.8258 26.7138 19.9659C27.0888 20.1061 27.4467 20.2973 27.7876 20.5398C28.1323 20.7784 28.4164 21.0852 28.6399 21.4602C28.8634 21.8352 28.9751 22.2955 28.9751 22.8409C28.9751 23.4697 28.8104 24.0379 28.4808 24.5455C28.1551 25.053 27.6778 25.4564 27.049 25.7557C26.424 26.0549 25.6645 26.2045 24.7706 26.2045C23.9373 26.2045 23.2157 26.0701 22.6058 25.8011C21.9998 25.5322 21.5225 25.1572 21.174 24.6761C20.8293 24.1951 20.6342 23.6364 20.5888 23H22.0433C22.0812 23.4394 22.2289 23.803 22.4865 24.0909C22.7479 24.375 23.0774 24.5871 23.4751 24.7273C23.8767 24.8636 24.3085 24.9318 24.7706 24.9318C25.3085 24.9318 25.7914 24.8447 26.2195 24.6705C26.6475 24.4924 26.9865 24.2462 27.2365 23.9318C27.4865 23.6136 27.6115 23.2424 27.6115 22.8182C27.6115 22.4318 27.5036 22.1174 27.2876 21.875C27.0717 21.6326 26.7876 21.4356 26.4354 21.2841C26.0831 21.1326 25.7024 21 25.2933 20.8864L23.8615 20.4773C22.9524 20.2159 22.2327 19.8428 21.7024 19.358C21.1721 18.8731 20.907 18.2386 20.907 17.4545C20.907 16.803 21.0831 16.2348 21.4354 15.75C21.7914 15.2614 22.2687 14.8826 22.8672 14.6136C23.4695 14.3409 24.1418 14.2045 24.8842 14.2045C25.6342 14.2045 26.3009 14.339 26.8842 14.608C27.4676 14.8731 27.9297 15.2367 28.2706 15.6989C28.6153 16.161 28.7971 16.6856 28.8161 17.2727H27.4524Z" fill="#0A3871"/>
</svg>
